<?xml version="1.0" standalone="no"?>
<!DOCTYPE svg PUBLIC "-//W3C//DTD SVG 20010904//EN"
 "http://www.w3.org/TR/2001/REC-SVG-20010904/DTD/svg10.dtd">
<svg version="1.0" xmlns="http://www.w3.org/2000/svg"
 width="256.000000pt" height="256.000000pt" viewBox="0 0 256.000000 256.000000"
 preserveAspectRatio="xMidYMid meet">
<metadata>
Created by potrace 1.14, written by Peter Selinger 2001-2017
</metadata>
<g transform="translate(0.000000,256.000000) scale(0.100000,-0.100000)"
fill="#000000" stroke="none">
<path d="M1445 2469 c-64 -9 -152 -34 -205 -60 -23 -11 -56 -22 -73 -23 -94
-10 -215 -36 -283 -60 -225 -79 -426 -224 -562 -405 -58 -77 -140 -225 -161
-293 -7 -20 -26 -54 -42 -75 -77 -96 -117 -279 -95 -423 10 -60 50 -148 86
-185 16 -16 40 -61 54 -98 14 -37 39 -92 55 -122 l30 -54 -39 -11 c-49 -13
-99 -54 -117 -97 -9 -23 -13 -76 -14 -167 0 -160 12 -200 73 -243 l41 -28 411
-2 c290 -1 438 -6 501 -16 93 -14 252 -15 340 -2 235 34 459 137 630 289 22
20 43 36 47 36 6 0 12 -46 23 -175 9 -94 15 -113 42 -135 58 -46 143 -8 247
110 131 149 120 409 -24 573 -20 23 -26 37 -20 48 11 20 48 152 55 199 13 85
15 110 15 195 -1 220 -62 429 -177 603 -19 28 -41 71 -48 95 -81 262 -274 453
-522 517 -53 13 -203 19 -268 9z"/>
</g>
</svg>
